<svg id="Layer_1" xmlns="http://www.w3.org/2000/svg" xmlns:xlink="http://www.w3.org/1999/xlink" viewBox="0 0 156.7 113"><style>.st0{fill:#004087;} .st1{fill:none;stroke:#004087;stroke-width:0.561;stroke-miterlimit:10;} .st2{clip-path:url(#SVGID_2_);fill:url(#SVGID_3_);} .st3{clip-path:url(#SVGID_5_);fill:url(#SVGID_6_);}</style><path class="st0" d="M28.8 68.7v7.6h5.8c2.8 0 4.2-1.8 4.2-3.8 0-2-1.3-3.8-4.2-3.8h-5.8zm0-9.7v7.2h5.3c2.7 0 4.1-1.6 4.1-3.6S36.8 59 34.1 59h-5.3zm6.6 20H26V56.5h8.5c4.3 0 6.6 2.4 6.6 5.9 0 1.8-.9 4-3.4 4.9v.1c2.6.6 3.9 3.1 3.9 5.3-.1 3.8-2.9 6.3-6.2 6.3"/><path class="st1" d="M28.8 68.7v7.6h5.8c2.8 0 4.2-1.8 4.2-3.8 0-2-1.3-3.8-4.2-3.8h-5.8zm0-9.7v7.2h5.3c2.7 0 4.1-1.6 4.1-3.6S36.8 59 34.1 59h-5.3zm6.6 20H26V56.5h8.5c4.3 0 6.6 2.4 6.6 5.9 0 1.8-.9 4-3.4 4.9v.1c2.6.6 3.9 3.1 3.9 5.3-.1 3.8-2.9 6.3-6.2 6.3z"/><path class="st0" d="M54.3 59h-5.8v7.6h5.7c2.4 0 4.3-1.4 4.3-4 0-2.4-1.8-3.6-4.2-3.6m3.5 20l-4.3-9.9h-5.1V79h-2.8V56.5h9.1c3.6 0 6.5 2.5 6.5 6.1 0 3.1-2 5.3-4.8 6.2L61 79h-3.2z"/><path class="st1" d="M54.3 59h-5.8v7.6h5.7c2.4 0 4.3-1.4 4.3-4 0-2.4-1.8-3.6-4.2-3.6zm3.5 20l-4.3-9.9h-5.1V79h-2.8V56.5h9.1c3.6 0 6.5 2.5 6.5 6.1 0 3.1-2 5.3-4.8 6.2L61 79h-3.2z"/><path class="st0" d="M65.4 56.5h2.8v22.4h-2.8z"/><path class="st1" d="M65.4 56.5h2.8v22.4h-2.8z"/><path class="st0" d="M80.4 59v20h-2.8V59h-6.4v-2.5h15.6V59z"/><path class="st1" d="M80.4 59v20h-2.8V59h-6.4v-2.5h15.6V59z"/><path class="st0" d="M89.7 56.5h2.8v22.4h-2.8z"/><path class="st1" d="M89.7 56.5h2.8v22.4h-2.8z"/><path class="st0" d="M104.1 79.2c-2.8 0-6.3-1-8.6-3.1l1.8-2.3c1.8 1.7 4.3 2.6 6.9 2.6 2.8 0 5-1.1 5-3.9 0-2.5-2.4-3.2-5.2-3.7-3.5-.7-7.2-1.3-7.2-6.2 0-4.1 3.4-6.3 7.4-6.3 3 0 5.3.7 7.2 2.2l-1.6 2.4c-1.6-1.1-3.5-1.8-5.6-1.8-3 0-4.6 1.3-4.6 3.5 0 2.4 2.2 3 6.3 3.8 2.9.6 6.2 1.4 6.3 6.2 0 4.1-3.3 6.6-8.1 6.6"/><path class="st1" d="M104.1 79.2c-2.8 0-6.3-1-8.6-3.1l1.8-2.3c1.8 1.7 4.3 2.6 6.9 2.6 2.8 0 5-1.1 5-3.9 0-2.5-2.4-3.2-5.2-3.7-3.5-.7-7.2-1.3-7.2-6.2 0-4.1 3.4-6.3 7.4-6.3 3 0 5.3.7 7.2 2.2l-1.6 2.4c-1.6-1.1-3.5-1.8-5.6-1.8-3 0-4.6 1.3-4.6 3.5 0 2.4 2.2 3 6.3 3.8 2.9.6 6.2 1.4 6.3 6.2 0 4.1-3.3 6.6-8.1 6.6z"/><path class="st0" d="M128.6 79V68.9h-9.9V79h-2.8V56.5h2.8v9.9h9.9v-9.9h2.9V79z"/><path class="st1" d="M128.6 79V68.9h-9.9V79h-2.8V56.5h2.8v9.9h9.9v-9.9h2.9V79z"/><path class="st0" d="M8.7 107.3c-3.2 0-6-.8-8.7-3.1l2.5-3.2c1.9 1.5 4.1 2.3 6.1 2.3 2.8 0 3.9-1.3 3.9-2.6 0-2-2.1-2.4-5.2-3.3-3.4-.9-6.5-2.3-6.5-6.3 0-3.9 3-6.6 7.6-6.7 2.7 0 5.5.4 8 2.1L14.5 90c-2-1.3-3.9-1.6-5.7-1.6-1.7 0-3.5.8-3.5 2.6s1.9 2.4 5 3.1c4.6 1 7 3.1 7 6.5-.1 4.5-3.8 6.7-8.6 6.7M32.8 92.5l-1.6 6.3-2.1 8.3h-4.9L18.6 85h4.7l1.9 8.7 1.5 6.9h.2l1.7-7 2.2-8.6h4.1l2.4 9.1 1.6 6.5h.2l1.4-6.6 2-9h4.7l-5.8 22.1h-4.7l-2.1-8.3-1.6-6.3zM50.1 85h4.4v22.2h-4.4zM75.9 95.2l-2.1 4.1-2.5 4.8h-3.2l-2.4-4.7-2.2-4.2h-.1v11.9H59V85h4.1l3.9 7.8 2.7 5.5h.2l2.7-5.7 3.8-7.6h4.1v22.1H76V95.2zM101.2 95.2l-2.1 4.1-2.5 4.8h-3.2L91 99.4l-2.2-4.2h-.1v11.9h-4.4V85h4l4 7.8 2.7 5.5h.2l2.7-5.7 3.8-7.6h4v22.1h-4.4V95.2zM110.2 85h4.4v22.2h-4.4zM123.5 93.2v13.9h-4.4V85h4l5.2 7.6 4.2 6.4h.1V85h4.4v22.1h-4l-5.6-8.3-3.7-5.6z"/><g><path class="st0" d="M149.3 107.4c-4.1 0-8.5-2.4-8.5-7.1V92c0-4.8 4.2-7.3 8.6-7.3 2.5 0 5.2.7 6.9 2.2l-2.2 3.4c-1.4-1.2-3.2-1.5-4.7-1.5-2 0-4.3 1.1-4.3 4v6.5c0 2.9 2.1 4 4.1 4 .8 0 1.9-.2 2.9-1v-3.7H149v-3.8h7.6v9.3c-1.9 2.5-4.9 3.3-7.3 3.3"/></g><g><defs><path id="SVGID_1_" d="M23 33.6c-8.8 7.7-12 18.7-13.5 24.9C8 64.7 7.8 69.8 7.8 69.8S14.4 57.2 27 48.9c7.4-4.8 15.5-11 32.8-13 11.3-1.3 18.9-1.4 18.9-1.4s-8.7-8.3-24-10.1c-2.1-.3-4.2-.4-6.2-.4-10.1 0-18.4 3.3-25.5 9.6"/></defs><clipPath id="SVGID_2_"><use xlink:href="#SVGID_1_" overflow="visible"/></clipPath><linearGradient id="SVGID_3_" gradientUnits="userSpaceOnUse" x1="276.879" y1="1001.413" x2="277.329" y2="1001.413" gradientTransform="matrix(157.48 0 0 -157.48 -43594.965 157748.906)"><stop offset="0" stop-color="#009EE3"/><stop offset=".239" stop-color="#0080C6"/><stop offset=".562" stop-color="#005DA4"/><stop offset=".827" stop-color="#00488F"/><stop offset="1" stop-color="#004088"/></linearGradient><path class="st2" d="M7.8 24h71v45.9h-71z"/></g><g><defs><path id="SVGID_4_" d="M130.6 20.7c-7.5 4.7-15.6 10.8-32.9 12.6-11.3 1.2-18.9 1.2-18.9 1.2s8.6 8.4 23.8 10.4c13.1 1.7 23.3-1.4 31.9-8.8 8.9-7.7 12.2-18.6 13.8-24.8 1.6-6.2 1.9-11.3 1.9-11.3s-6.8 12.6-19.6 20.7"/></defs><clipPath id="SVGID_5_"><use xlink:href="#SVGID_4_" overflow="visible"/></clipPath><linearGradient id="SVGID_6_" gradientUnits="userSpaceOnUse" x1="276.356" y1="1001.901" x2="276.807" y2="1001.901" gradientTransform="matrix(158.428 0 0 -158.428 -43703.773 158752.5)"><stop offset="0" stop-color="#69353F"/><stop offset=".017" stop-color="#6E353E"/><stop offset=".137" stop-color="#90323B"/><stop offset=".266" stop-color="#AC3037"/><stop offset=".404" stop-color="#C12E35"/><stop offset=".557" stop-color="#D02D33"/><stop offset=".735" stop-color="#D92C32"/><stop offset="1" stop-color="#DC2C32"/></linearGradient><path class="st3" d="M78.8 0h71.4v46.7H78.8z"/></g></svg>
